# xmcd
# 
# Track frame offsets:
#     212
#     13200
#     27825
#     40350
#     59617
#     71025
#     85030
#     97705
#     109240
#     121770
#     133322
#     148415
#     160042
#     176537
#     191627
#     203230
# 
# Disc length: 2921
# 
# Revision: 0
# Processed by: cddbd v1.5.2PL0 Copyright (c) Steve Scherf et al.
# Submitted via: fre:ac v1.1beta1pre5
# 
DISCID=e50b6710
DTITLE=The Tremeloes - silence is golden
DYEAR=2002
DGENRE=Rock
TTITLE0=Even the bad times are good
TTITLE1=Silence is golden
TTITLE2=Helulé, helulé
TTITLE3=Never win
TTITLE4=Once on a Sunday morning - Cuando Sali de Cuba
TTITLE5=African lullaby
TTITLE6=Hello world
TTITLE7=My little lady
TTITLE8=Here comes my baby
TTITLE9=I like it that way
TTITLE10=Someone, Someone
TTITLE11=And then I kissed her
TTITLE12=Lean on me baby
TTITLE13=St. Tropez
TTITLE14=Me and my life
TTITLE15=Call me number one
EXTD=
EXTT0=
EXTT1=
EXTT2=
EXTT3=
EXTT4=
EXTT5=
EXTT6=
EXTT7=
EXTT8=
EXTT9=
EXTT10=
EXTT11=
EXTT12=
EXTT13=
EXTT14=
EXTT15=
PLAYORDER=
